:SAMPLES-PER-SECOND 30
:FULLY-SPECIFIED
:DEGREES
62
root  23.3256 37.414 -37.1847 142.294 -77.7262 -143.166
RightUpLeg  -14.0864 -6.46537 6.07934
RightLeg  39.5309 -3.84824 -3.69344
RightFoot  -21.9591 -0.180262 -0.328834
RightToes  -1.74624e-010 0 -3.6325e-017
Spine  11.359 -1.85052 14.3936
Spine1  6.54844 0.465536 -2.27927
HEad  -18.8787 6.2878 -9.698
LeftShoulder1  9.06472 -12.2206 -50.3222
LeftArm  2.36827 18.3339 -28.6544
LeftForeArm  -179.931 -65.9953 -159.111
LeftHand  -0.244104 0.0205437 5.32207
RightShoulder  5.86737 9.04374 40.5886
RightArm  -6.72674 -22.3894 27.417
RightForeArm  132.897 71.2972 146.042
RightHand  0.303774 -8.18339 -13.5794
LeftUpLeg  -17.7299 -2.43552 4.70716
LeftLeg  69.3684 2.83732 9.15255
LeftFoot  -6.56715 0.114813 -1.83674
LeftToes  9.06232e-013 -1.14826e-010 3.0111e-013
63
root  21.0542 37.9155 -37.6205 150.859 -79.8103 -151.878
RightUpLeg  -8.00793 -6.75805 2.94454
RightLeg  35.4678 -4.02297 -3.34165
RightFoot  -22.3826 -0.105942 0.465266
RightToes  -1.74624e-010 0 -3.6325e-017
Spine  9.9645 -0.300818 12.7761
Spine1  6.4677 2.23665 -4.54416
HEad  -16.2203 3.23902 -6.99562
LeftShoulder1  8.71271 -11.9165 -49.314
LeftArm  4.73083 23.008 -26.9021
LeftForeArm  179.783 -64.217 -160.65
LeftHand  -0.244104 0.0205437 5.32207
RightShoulder  5.75361 8.96668 39.9998
RightArm  -7.18648 -20.0241 34.4576
RightForeArm  140.762 69.2179 150.555
RightHand  0.290503 -8.25884 -12.8148
LeftUpLeg  -21.4194 -1.36984 1.51434
LeftLeg  63.246 3.82513 8.84312
LeftFoot  -9.45217 0.0943652 -2.49984
LeftToes  9.06232e-013 -1.14826e-010 3.0111e-013
64
root  18.6887 38.6294 -38.006 162.966 -81.7757 -163.829
RightUpLeg  -1.64312 -6.80402 -0.302934
RightLeg  29.9013 -4.05007 -2.76744
RightFoot  -20.0911 0.0122448 1.96298
RightToes  -1.74624e-010 0 -3.6325e-017
Spine  8.39833 1.47892 10.9385
Spine1  5.68523 4.1095 -6.77927
HEad  -12.5849 -0.243598 -4.44343
LeftShoulder1  8.04983 -11.272 -47.537
LeftArm  7.72823 26.7655 -25.9564
LeftForeArm  -178.887 -62.2287 -162.312
LeftHand  -0.244104 0.0205437 5.32207
RightShoulder  5.77322 8.98087 40.0977
RightArm  -4.05566 -19.1451 38.2823
RightForeArm  146.705 66.4256 154.927
RightHand  0.350085 -9.47026 -10.8941
LeftUpLeg  -23.2281 0.918241 -2.15223
LeftLeg  52.5267 5.55344 8.15535
LeftFoot  -11.2751 0.0722611 -4.15347
LeftToes  9.06232e-013 -1.14826e-010 3.0111e-013
65
root  16.2805 39.3459 -38.2872 170.304 -83.3302 -170.53
RightUpLeg  3.74598 -8.42651 -2.74509
RightLeg  24.8952 -2.77768 -1.65251
RightFoot  -15.5255 0.0788893 5.37207
RightToes  -1.74624e-010 0 -3.6325e-017
Spine  6.23106 2.94717 10.0021
Spine1  5.04228 5.51743 -8.37912
HEad  -8.5833 -3.04812 -2.88513
LeftShoulder1  7.5118 -10.7763 -45.8609
LeftArm  9.24233 30.5088 -25.6544
LeftForeArm  -176.794 -60.1032 -163.928
LeftHand  -0.244104 0.0205437 5.32207
RightShoulder  5.87682 9.13173 40.3525
RightArm  1.97104 -17.9699 38.7399
RightForeArm  150.997 64.5957 157.297
RightHand  0.26752 -10.4965 -7.17153
LeftUpLeg  -23.7066 5.23115 -5.55657
LeftLeg  38.5585 7.25702 6.62397
LeftFoot  -11.2335 0.0706203 -4.64913
LeftToes  9.06232e-013 -1.14826e-010 3.0111e-013
66
root  13.8801 39.9016 -38.4585 161.36 -84.7507 -160.917
RightUpLeg  7.55385 -12.0778 -4.24919
RightLeg  22.5522 0.0893452 -0.171096
RightFoot  -8.20805 -0.334513 9.84073
RightToes  -1.74624e-010 0 -3.6325e-017
Spine  3.89406 3.83412 10.4079
Spine1  5.11266 6.25921 -9.12312
HEad  -5.0823 -4.89809 -2.56199
LeftShoulder1  7.18777 -10.5093 -44.672
LeftArm  8.95049 34.0859 -25.7834
LeftForeArm  -174.504 -58.2126 -165.251
LeftHand  -0.244104 0.0205437 5.32207
RightShoulder  5.87845 9.31059 39.7495
RightArm  8.6649 -16.232 38.3257
RightForeArm  158.029 63.7345 158.822
RightHand  -0.0161337 -10.8734 -0.887293
LeftUpLeg  -23.2224 11.5398 -8.57484
LeftLeg  23.8126 6.81888 3.54569
LeftFoot  -10.1921 0.107036 -4.4841
LeftToes  9.06232e-013 -1.14826e-010 3.0111e-013
67
root  11.5306 40.1015 -38.5637 132.683 -85.2599 -132.339
RightUpLeg  9.15003 -14.2817 -4.45089
RightLeg  25.2484 3.1543 1.41821
RightFoot  1.16573 -1.44481 13.2619
RightToes  -1.74624e-010 0 -3.6325e-017
Spine  2.53389 4.28463 11.8068
Spine1  5.73498 6.55717 -9.05187
HEad  -3.06684 -5.99276 -2.98329
LeftShoulder1  7.00368 -10.3884 -43.868
LeftArm  7.34046 36.4819 -26.6292
LeftForeArm  -173.264 -57.595 -165.686
LeftHand  -0.244104 0.0205437 5.32207
RightShoulder  5.81965 9.52738 38.5921
RightArm  14.0052 -14.5554 38.164
RightForeArm  166.023 63.7832 159.604
RightHand  -0.272518 -10.4568 4.8223
LeftUpLeg  -21.1744 12.9818 -8.47381
LeftLeg  11.0606 8.59425 -1.3368
LeftFoot  -9.49544 0.167095 -6.72426
LeftToes  9.06232e-013 -1.14826e-010 3.0111e-013
68
root  9.24434 39.7997 -38.6672 106.645 -84.069 -107.388
RightUpLeg  8.3912 -12.4056 -3.5619
RightLeg  33.0106 5.95542 3.96663
RightFoot  9.67266 -2.79101 15.3458
RightToes  -1.74624e-010 0 -3.6325e-017
Spine  2.63759 4.66725 13.132
Spine1  6.28469 6.85466 -8.63954
HEad  -2.5137 -5.97356 -3.28901
LeftShoulder1  6.86566 -10.4773 -42.6673
LeftArm  4.81108 37.9943 -28.6393
LeftForeArm  -173.408 -58.2733 -165.3
LeftHand  -0.244104 0.0205437 5.32207
RightShoulder  5.85467 9.90124 37.6455
RightArm  17.2179 -13.7328 37.9837
RightForeArm  169.002 64.7749 159.051
RightHand  -0.314061 -9.70952 6.66461
LeftUpLeg  -17.6997 2.51651 -3.25121
LeftLeg  2.6035 20.0369 -7.04137
LeftFoot  -8.68139 0.26407 -9.08666
LeftToes  9.06232e-013 -1.14826e-010 3.0111e-013
